# AST/ASF file generated using VICON BodyLanguage
# -----------------------------------------------
:version 1.10
:name VICON
:units
  mass 1.0
  length 0.45
  angle deg
:documentation
   .ast/.asf automatically generated from VICON data using
   VICON BodyBuilder and BodyLanguage model FoxedUp or BRILLIANT.MOD
:root
   order TX TY TZ RX RY RZ
   axis XYZ
   position 0 0 0  
   orientation 0 0 0 
:bonedata
  begin
     id 1 
     name lhipjoint
     direction 0.610259 -0.730986 0.305356 
     length 2.50941 
     axis 0 0 0  XYZ
  end
  begin
     id 2 
     name lfemur
     direction 0.34202 -0.939693 0  
     length 7.48822  
     axis 0 0 20  XYZ
    dof rx ry rz
    limits (-160.0 20.0)
           (-70.0 70.0)
           (-60.0 70.0)
  end
  begin
     id 3 
     name ltibia
     direction 0.34202 -0.939693 0   
     length 7.60141   
     axis 0 0 20   XYZ
    dof rx
    limits (-10.0 170.0)
  end
  begin
     id 4 
     name lfoot
     direction 0.0673488 -0.185039 0.980421   
     length 2.04049   
     axis -90 7.62852e-016 20   XYZ
    dof rx rz
    limits (-45.0 90.0)
           (-70.0 20.0)
  end
  begin
     id 5 
     name ltoes
     direction 1.5356e-011 -4.21729e-011 1   
     length 1.02897   
     axis -90 7.62852e-016 20   XYZ
    dof rx
    limits (-90.0 20.0)
  end
  begin
     id 6 
     name rhipjoint
     direction -0.57612 -0.754205 0.315056   
     length 2.43216  
     axis 0 0 0  XYZ 
  end
  begin
     id 7 
     name rfemur
     direction -0.34202 -0.939693 0   
     length 7.42799   
     axis 0 0 -20   XYZ
    dof rx ry rz
    limits (-160.0 20.0)
           (-70.0 70.0)
           (-70.0 60.0)
  end
  begin
     id 8 
     name rtibia
     direction -0.34202 -0.939693 0   
     length 7.69484   
     axis 0 0 -20   XYZ
    dof rx
    limits (-10.0 170.0)
 end
 begin
     id 9 
     name rfoot
     direction -0.111837 -0.30727 0.945028   
     length 2.15769  
     axis -90 -7.62852e-016 -20   XYZ
    dof rx rz
    limits (-45.0 90.0)
           (-20.0 70.0)
  end
  begin
     id 10 
     name rtoes
     direction -1.53539e-011 -4.21878e-011 1   
     length 1.07391   
     axis -90 -7.62852e-016 -20   XYZ
    dof rx
    limits (-90.0 20.0)
  end
  begin
     id 11 
     name lowerback
     direction 0.00552624 0.990109 -0.140195   
     length 2.12403   
     axis 0 0 0   XYZ
    dof rx ry rz
    limits (-20.0 45.0)
           (-30.0 30.0)
           (-30.0 30.0)
  end
  begin
     id 12 
     name upperback
     direction 0.00361898 0.999976 -0.00584723   
     length 2.13232   
     axis 0 0 0   XYZ
    dof rx ry rz
    limits (-20.0 45.0)
           (-30.0 30.0)
           (-30.0 30.0)
  end
  begin
     id 13 
     name thorax
     direction -0.000331275 0.998253 0.0590847   
     length 2.17688   
     axis 0 0 0   XYZ
    dof rx ry rz
    limits (-20.0 45.0)
           (-30.0 30.0)
           (-30.0 30.0)
  end
  begin
     id 14 
     name lowerneck
     direction -0.0561561 0.979832 0.19177   
     length 1.64159   
     axis 0 0 0   XYZ
    dof rx ry rz
    limits (-20.0 45.0)
           (-30.0 30.0)
           (-30.0 30.0)
  end
  begin
     id 15 
     name upperneck
     direction 0.0827153 0.979385 -0.184293   
     length 1.68939   
     axis 0 0 0   XYZ
    dof rx ry rz
    limits (-20.0 45.0)
           (-30.0 30.0)
           (-30.0 30.0)
  end
  begin
     id 16
     name head
     direction 0.0278583 0.995936 -0.0856488  
     length 1.70207  
     axis 0 0 0   XYZ
    dof rx ry rz
    limits (-20.0 45.0)
           (-30.0 30.0)
           (-30.0 30.0)
  end
  begin
     id 17 
     name lclavicle
     direction 0.950993 0.301131 -0.0702275  
     length 3.41652  
     axis 0 0 0   XYZ
    dof ry rz
    limits (-20.0 10.0)
           (0.0 20.0)
  end
  begin
     id 18 
     name lhumerus
     direction 1 -4.48981e-011 -3.9662e-029   
     length 5.32955   
     axis 180 -30 -90   XYZ
    dof rx ry rz
    limits (-60.0 90.0)
           (-90.0 90.0)
           (-90.0 90.0)
  end
  begin
     id 19
     name lradius
     direction 1 -4.48925e-011 -9.0549e-027   
     length 3.69232   
     axis 180 -30 -90   XYZ
    dof rx
    limits (-10.0 170.0)
  end
  begin
     id 20
     name lwrist
     direction 1 -4.49007e-011 -1.49005e-026   
     length 1.84616   
     axis 9.0955e-015 90 90   XYZ
    dof ry
    limits (-180.0 0.0)
 end
  begin
     id 21 
     name lhand
     direction 1 -4.49016e-011 -2.98023e-026   
     length 0.536598   
     axis 1.90115e-014 90 90   XYZ
    dof rx rz
    limits (-90.0 90.0)
           (-45.0 45.0)
  end
  begin
     id 22 
     name lfingers
     direction 1 -4.48924e-011 -5.9578e-026   
     length 0.432619   
     axis 3.80223e-014 90 90   XYZ
    dof rx
    limits (0.0 90.0)
  end
  begin
     id 23
     name lthumb
     direction 0.707107 -6.34947e-011 0.707107   
     length 0.621157   
     axis -90 45 -3.84942e-014   XYZ
    dof rx rz
    limits (-45.0 45.0)
           (-45.0 45.0)
  end
  begin
     id 24 
     name rclavicle
     direction -0.955495 0.276497 -0.102848   
     length 3.36357  
     axis 0 0 0   XYZ 
    dof ry rz
    limits (-10.0 20.0)
           (-20.0 0.0)
  end
  begin
     id 25 
     name rhumerus
     direction -1 -4.48961e-011 3.30983e-027  
     length 5.23431   
     axis 180 30 90   XYZ
    dof rx ry rz
    limits (-90.0 60.0)
           (-90.0 90.0)
           (-90.0 90.0)
  end
  begin
     id 26 
     name rradius
     direction -1 -4.48965e-011 -6.63263e-027   
     length 3.55301   
     axis 180 30 90   XYZ
    dof rx
    limits (-10.0 170.0)
  end
  begin
     id 27 
     name rwrist
     direction -1 -4.48942e-011 -1.48958e-026   
     length 1.77651   
     axis 9.0955e-015 -90 -90   XYZ
    dof ry
    limits (-180.0 0.0)
  end
  begin
     id 28
     name rhand
     direction -1 -4.48977e-011 -2.97966e-026   
     length 0.772522   
     axis 1.90115e-014 -90 -90   XYZ
    dof rx rz
    limits (-90.0 90.0)
           (-45.0 45.0)
  end
  begin
     id 29
     name rfingers
     direction -1 -4.49135e-011 -5.96389e-026   
     length 0.622827   
     axis 3.80223e-014 -90 -90   XYZ
    dof rx
    limits (0.0 90.0)
  end
  begin
     id 30
     name rthumb
     direction -0.707107 -6.34969e-011 0.707107   
     length 0.894259   
     axis -90 -45 3.84942e-014   XYZ
    dof rx rz
    limits (-45.0 45.0)
           (-45.0 45.0)
  end
:hierarchy
  begin
    root lhipjoint rhipjoint lowerback
    lhipjoint lfemur
    lfemur ltibia
    ltibia lfoot
    lfoot ltoes
    rhipjoint rfemur
    rfemur rtibia
    rtibia rfoot
    rfoot rtoes
    lowerback upperback
    upperback thorax
    thorax lowerneck lclavicle rclavicle
    lowerneck upperneck
    upperneck head
    lclavicle lhumerus
    lhumerus lradius
    lradius lwrist
    lwrist lhand lthumb
    lhand lfingers
    rclavicle rhumerus
    rhumerus rradius
    rradius rwrist
    rwrist rhand rthumb
    rhand rfingers
  end

#!OML:ASF F:\VICON\USERDATA\INSTALL\rory3\rory3.ASF
:FULLY-SPECIFIED
:DEGREES
1
root -12.5536 17.8519 -8.59827 -1.48991 57.8666 -4.49862
lowerback 7.09965 -3.89041 -3.81817
upperback -0.638534 -5.44089 1.6399
thorax -4.12079 -2.59654 4.39297
lowerneck 1.18102 -18.8187 -18.7178
upperneck 15.4561 -27.8523 16.3624
head 9.66977 -13.5045 5.02291
rclavicle 8.98507e-014 -5.1684e-015
rhumerus -32.0938 -11.6009 -81.5009
rradius 27.9378
rwrist 8.61047
rhand -14.5391 8.40824
rfingers 7.12502
rthumb 11.6093 -21.2502
lclavicle 8.98507e-014 -5.1684e-015
lhumerus -28.923 5.00265 85.6176
lradius 26.2944
lwrist -9.65827
lhand -18.9536 23.929
lfingers 7.12502
lthumb 7.34998 53.7813
rfemur -9.25271 6.52644 24.9313
rtibia 27.3367
rfoot -17.0392 9.05959
rtoes 5.79302
lfemur -6.48274 1.1304 -20.9207
ltibia 24.6964
lfoot -16.2963 14.8401
ltoes 10.0349
2
root -12.5548 17.8523 -8.59592 -1.57086 58.0169 -4.56673
lowerback 7.13013 -3.86628 -3.79905
upperback -0.624155 -5.40721 1.65204
thorax -4.12681 -2.58008 4.39389
lowerneck 0.509983 -18.7155 -18.4161
upperneck 16.1084 -27.5759 15.7227
head 9.8116 -13.3391 4.77154
rclavicle 6.51393e-014 3.77691e-015
rhumerus -32.1731 -11.7331 -81.4245
rradius 28.0421
rwrist 8.45269
rhand -14.5344 8.34178
rfingers 7.12502
rthumb 11.6138 -21.3164
lclavicle 6.51393e-014 3.77691e-015
lhumerus -28.9847 4.7657 85.7095
lradius 26.4159
lwrist -9.54495
lhand -19.0717 24.286
lfingers 7.12502
lthumb 7.2359 54.1423
rfemur -9.17612 6.59573 24.998
rtibia 27.2654
rfoot -17.0206 8.78465
rtoes 5.62518
lfemur -6.49105 1.17735 -20.8507
ltibia 24.7203
lfoot -15.8396 14.7034
ltoes 7.85382
3
root -12.5543 17.8542 -8.59625 -1.55867 58.1021 -4.5782
lowerback 7.11097 -3.79607 -3.73527
upperback -0.635936 -5.309 1.61989
thorax -4.14683 -2.53219 4.31551
lowerneck -0.0687242 -18.5568 -18.1151
upperneck 16.7648 -27.2657 15.2312
head 9.96231 -13.1565 4.58366
rclavicle 1.10947e-014 4.96962e-015
rhumerus -32.2674 -11.9922 -81.3227
rradius 28.0515
rwrist 8.41541
rhand -14.6694 8.33652
rfingers 7.12502
rthumb 11.4836 -21.3289
lclavicle 1.10947e-014 4.96962e-015
lhumerus -29.0981 4.34931 85.8365
lradius 26.5932
lwrist -9.30665
lhand -19.1794 24.5387
lfingers 7.12502
lthumb 7.132 54.3985
rfemur -9.20423 6.63224 25.014
rtibia 27.2968
rfoot -17.0628 8.56318
rtoes 5.60328
lfemur -6.44983 1.05484 -20.83
ltibia 24.6242
lfoot -15.3584 14.6644
ltoes 5.95872
4
root -12.5535 17.8578 -8.59562 -1.34439 58.2115 -4.40982
lowerback 7.04064 -3.75942 -3.76397
upperback -0.668304 -5.26365 1.558
thorax -4.14881 -2.50916 4.25905
lowerneck -0.604237 -18.3326 -17.7835
upperneck 17.38 -26.8645 14.7485
head 10.0757 -12.9357 4.41927
rclavicle 2.19036e-014 -1.98785e-015
rhumerus -32.3148 -12.1687 -81.2684
rradius 28.0156
rwrist 8.47388
rhand -14.858 8.31249
rfingers 7.12502
rthumb 11.3017 -21.363
lclavicle 2.19036e-014 -1.98785e-015
lhumerus -29.1299 4.20392 85.8554
lradius 26.5781
lwrist -9.28801
lhand -19.202 24.2842
lfingers 7.12502
lthumb 7.11016 54.1447
rfemur -9.28515 6.56792 24.9194
rtibia 27.3444
rfoot -17.177 8.4276
rtoes 5.81819
lfemur -6.45422 0.784838 -20.9206
ltibia 24.5323
lfoot -15.5053 14.5656
ltoes 7.13333
5
root -12.5544 17.8569 -8.59133 -1.13058 58.3879 -4.19244
lowerback 7.01095 -3.76058 -3.89437
upperback -0.688955 -5.27698 1.53232
thorax -4.14333 -2.51301 4.30459
lowerneck -1.26437 -18.0524 -17.4721
upperneck 18.0184 -26.3519 14.1954
head 10.1967 -12.664 4.24351
rclavicle 1.46678e-013 -1.25234e-014
rhumerus -32.3516 -12.2767 -81.19
rradius 27.9633
rwrist 8.48068
rhand -14.973 8.31394
rfingers 7.12502
rthumb 11.1908 -21.3676
lclavicle 1.46678e-013 -1.25234e-014
lhumerus -29.1446 4.20314 85.8651
lradius 26.5215
lwrist -9.31922
lhand -19.2434 24.1056
lfingers 7.12502
lthumb 7.07017 53.9675
rfemur -9.33035 6.48627 24.8145
rtibia 27.4155
rfoot -17.2665 8.27953
rtoes 5.92985
lfemur -6.46688 0.865883 -21.024
ltibia 24.4254
lfoot -15.7353 14.3379
ltoes 8.24211
6
root -12.5554 17.8539 -8.58799 -1.06278 58.5271 -4.11399
lowerback 6.99262 -3.75988 -3.97957
upperback -0.674784 -5.28155 1.5526
thorax -4.10836 -2.51457 4.37107
lowerneck -2.06609 -17.723 -17.107
upperneck 18.6558 -25.7723 13.7197
head 10.3423 -12.3466 4.0857
rclavicle 2.09594e-014 -2.98177e-015
rhumerus -32.3332 -12.3518 -81.1279
rradius 27.9116
rwrist 8.44516
rhand -15.0303 8.17813
rfingers 7.12502
rthumb 11.1355 -21.5064
lclavicle 2.09594e-014 -2.98177e-015
lhumerus -29.1064 4.19951 85.9135
lradius 26.4942
lwrist -9.2763
lhand -19.2751 24.2789
lfingers 7.12502
lthumb 7.03956 54.1418
rfemur -9.35414 6.62067 24.7934
rtibia 27.4887
rfoot -17.2577 8.03226
rtoes 5.98805
lfemur -6.45645 0.908659 -21.0649
ltibia 24.3258
lfoot -15.8122 14.2007
ltoes 8.78974
7
root -12.5559 17.8525 -8.58638 -1.08309 58.6156 -4.13421
lowerback 6.99678 -3.727 -3.97648
upperback -0.666572 -5.23647 1.57389
thorax -4.10494 -2.49227 4.38752
lowerneck -2.9527 -17.3609 -16.748
upperneck 19.4261 -25.1593 13.2662
head 10.5577 -12.0059 3.93185
rclavicle 1.63799e-013 7.15625e-015
rhumerus -32.3519 -12.4594 -81.052
rradius 27.8982
rwrist 8.40162
rhand -15.1266 8.19231
rfingers 7.12502
rthumb 11.0426 -21.4972
lclavicle 1.63799e-013 7.15625e-015
lhumerus -29.061 4.12205 85.9991
lradius 26.4726
lwrist -9.14432
lhand -19.2254 24.6362
lfingers 7.12502
lthumb 7.08759 54.4975
rfemur -9.35592 6.85267 24.827
rtibia 27.5429
rfoot -17.2636 7.73899
rtoes 5.96421
lfemur -6.42989 0.955346 -21.0464
ltibia 24.2538
lfoot -15.7932 14.0422
ltoes 8.91899
8
root -12.555 17.8523 -8.58418 -1.12708 58.6667 -4.20066
lowerback 6.97182 -3.6628 -3.88357
upperback -0.681196 -5.14183 1.58372
thorax -4.12278 -2.44643 4.33664
lowerneck -3.76129 -16.9866 -16.6064
upperneck 20.2573 -24.5187 12.7903
head 10.8126 -11.6741 3.80685
rclavicle 1.40566e-013 -2.98177e-015
rhumerus -32.5026 -12.8121 -80.8693
rradius 27.9666
rwrist 8.62666
rhand -15.0512 8.29226
rfingers 7.12502
rthumb 11.1154 -21.3934
lclavicle 1.40566e-013 -2.98177e-015
lhumerus -29.0747 3.75787 86.1727
lradius 26.4927
lwrist -8.72105
lhand -19.3264 25.169
lfingers 7.12502
lthumb 6.99004 55.0336
rfemur -9.34081 7.0767 24.8886
rtibia 27.537
rfoot -17.2638 7.45503
rtoes 6.13101
lfemur -6.44252 1.13088 -20.9868
ltibia 24.228
lfoot -15.7562 13.8272
ltoes 8.52128
9
root -12.5552 17.855 -8.58299 -1.17589 58.719 -4.26162
lowerback 6.9542 -3.58066 -3.80178
upperback -0.695549 -5.02406 1.60259
thorax -4.14472 -2.38866 4.29985
lowerneck -4.44842 -16.6018 -16.6987
upperneck 21.0663 -23.8842 12.4757
head 11.1023 -11.3584 3.77398
rclavicle 1.27595e-014 8.94531e-015
rhumerus -32.6965 -13.2444 -80.6171
rradius 28.0671
rwrist 8.96182
rhand -14.7367 8.21447
rfingers 7.12502
rthumb 11.4187 -21.4546
lclavicle 1.27595e-014 8.94531e-015
lhumerus -29.1378 3.2522 86.3872
lradius 26.5749
lwrist -8.16455
lhand -19.2638 25.2087
lfingers 7.12502
lthumb 7.05049 55.0713
rfemur -9.31393 7.2052 24.947
rtibia 27.5121
rfoot -17.221 7.28448
rtoes 6.2888
lfemur -6.44154 1.21158 -20.9267
ltibia 24.2113
lfoot -15.7965 13.5613
ltoes 9.211
